<?xml version="1.0" encoding="UTF-8" standalone="no"?>
<!-- Created with Inkscape (http://www.inkscape.org/) -->
<svg
   xmlns:dc="http://purl.org/dc/elements/1.1/"
   xmlns:cc="http://web.resource.org/cc/"
   xmlns:rdf="http://www.w3.org/1999/02/22-rdf-syntax-ns#"
   xmlns:svg="http://www.w3.org/2000/svg"
   xmlns="http://www.w3.org/2000/svg"
   xmlns:xlink="http://www.w3.org/1999/xlink"
   xmlns:sodipodi="http://inkscape.sourceforge.net/DTD/sodipodi-0.dtd"
   xmlns:inkscape="http://www.inkscape.org/namespaces/inkscape"
   width="64px"
   height="64px"
   id="svg1535"
   sodipodi:version="0.32"
   inkscape:version="0.42"
   inkscape:export-filename="booger.gif"
   inkscape:export-xdpi="90.000000"
   inkscape:export-ydpi="90.000000"
   sodipodi:docbase="C:\Documents and Settings\Sean\Desktop"
   sodipodi:docname="kiwi.svg">
  <defs
     id="defs1537" />
  <sodipodi:namedview
     id="base"
     pagecolor="#ffffff"
     bordercolor="#666666"
     borderopacity="1.0"
     inkscape:pageopacity="0.0"
     inkscape:pageshadow="2"
     inkscape:zoom="12.429082"
     inkscape:cx="58.460060"
     inkscape:cy="28.754063"
     inkscape:current-layer="layer1"
     showgrid="true"
     inkscape:document-units="px"
     inkscape:grid-bbox="true"
     inkscape:window-width="1280"
     inkscape:window-height="941"
     inkscape:window-x="-4"
     inkscape:window-y="-4" />
  <metadata
     id="metadata1540">
    <rdf:RDF>
      <cc:Work
         rdf:about="">
        <dc:format>image/svg+xml</dc:format>
        <dc:type
           rdf:resource="http://purl.org/dc/dcmitype/StillImage" />
      </cc:Work>
    </rdf:RDF>
  </metadata>
  <g
     id="layer1"
     inkscape:label="Layer 1"
     inkscape:groupmode="layer">
    <image
       id="image1646"
       height="55.520493"
       width="62.000000"
       sodipodi:absref="C:\Documents and Settings\Sean\Desktop\kiwi_cb.jpg"
       xlink:href="kiwi_cb.jpg"
       x="-159.00000"
       y="-3.5204926"
       transform="scale(-1.000000,1.000000)" />
    <path
       style="fill:#000000;fill-opacity:1.0000000;fill-rule:evenodd;stroke:#000000;stroke-width:1.0000000px;stroke-linecap:butt;stroke-linejoin:miter;stroke-opacity:1.0000000"
       d="M 38.060386,53.794521 C 37.236792,53.880908 33.000000,53.000000 33.000000,53.000000 L 38.239647,56.820926 L 33.788928,55.375714 L 32.272540,54.588599 L 32.251276,58.000000 L 30.000000,54.100676 L 27.426918,53.411221 L 28.073003,51.000000 L 28.073003,46.000000 L 26.709240,44.636238 L 24.000000,43.910299 L 21.422286,46.488013 L 19.945353,52.000000 L 22.471250,54.525897 L 27.972677,56.000000 L 29.127378,58.000000 L 25.314267,56.465345 L 23.000000,56.000000 L 26.000000,59.000000 L 27.527956,60.954066 L 22.803848,58.000000 L 19.339746,56.000000 L 17.607695,57.000000 L 15.000000,59.607695 L 15.000000,57.000000 L 17.714544,54.285456 L 18.463574,51.490038 L 18.463574,48.000000 L 15.000000,44.536426 L 10.000000,39.536426 L 7.9582440,36.000000 L 7.9582440,27.000000 L 13.731746,17.000000 C 13.731746,17.000000 20.539048,12.927184 21.000000,12.803672 C 21.460952,12.680160 27.731395,11.000000 27.731395,11.000000 L 35.000000,11.000000 L 41.928203,15.000000 L 46.411929,19.483726 L 51.000000,22.132650 L 55.000000,22.132650 L 58.000000,25.132650 L 59.304203,30.000000 L 58.500355,33.000000 L 60.000000,38.596751 L 62.787542,49.000000 L 62.787542,53.000000 L 59.889851,46.328802 L 53.304613,33.000000 L 48.000000,33.000000 L 45.000000,33.803848 L 41.000000,32.732051 L 38.000000,35.732051 L 35.000000,36.535898 L 35.000000,40.585942 L 32.585942,43.000000 L 30.000000,45.585942 L 31.298715,50.432813 L 32.564741,51.698839 L 36.658652,52.040187 L 38.060386,53.794521 z "
       id="path1649"
       sodipodi:nodetypes="ccccccccccccccccccccccccccccccccccscccccccccccccccccccccccccc" />
    <path
       style="fill:none;fill-opacity:0.75000000;fill-rule:evenodd;stroke:#ffffff;stroke-width:0.62500000;stroke-linecap:butt;stroke-linejoin:miter;stroke-opacity:1.0000000;stroke-miterlimit:4.0000000;stroke-dasharray:none"
       d="M 22.803933,31.437522 L 25.910261,35.778870 L 26.126391,41.184022 L 24.424571,44.981390"
       id="path1653"
       sodipodi:nodetypes="cccc" />
    <path
       id="path1655"
       style="fill:none;fill-opacity:0.75000000;fill-rule:evenodd;stroke:#ffffff;stroke-width:0.50000000;stroke-linecap:butt;stroke-linejoin:miter;stroke-miterlimit:4.0000000;stroke-opacity:1.0000000"
       d="M 51.250000,27.250000 L 53.320761,28.443545 C 53.320761,28.443545 54.317300,31.687352 54.317300,31.687352 L 52.204518,30.757123 L 51.252642,28.542773"
       sodipodi:nodetypes="ccccc" />
  </g>
</svg>
